{"title":"Day of the Survivalist (1986) [VHSRip] [thePiratePimp].avi","uid":11884966,"size":732899328,"categoryP":"video","categoryS":"movies","magnet":"?xt=urn:btih:1e0d253352ae58688589a3de8d41cb3b4075292a&amp;dn=Day+of+the+Survivalist+%281986%29+%5BVHSRip%5D+%5BthePiratePimp%5D.avi&amp;tr=udp%3A%2F%2Ftracker.openbittorrent.com%3A80&amp;tr=udp%3A%2F%2Fopen.demonii.com%3A1337&amp;tr=udp%3A%2F%2Ftracker.coppersurfer.tk%3A6969&amp;tr=udp%3A%2F%2Fexodus.desync.com%3A6969","seeders":4,"leechers":0,"uploader":"thepiratepimp","files":1,"time":1430811632,"description":"Day of the Survivalist (1986) [VHSRip] [thePiratePimp]\n\n[img]http://imageshack.us/a/img189/3915/dqsp.jpg[/img]\n[img]https://yuq.me/users/23/020/6NYauGPAH2.png[/img]\n\nVietnam vet leaves the ugly congestion of Los Angeles and moves north to the &quot;paradise&quot; of rural Oregon. He is soon befriended by a group of hardcore paramilitary survivalists, who try to bring him into their circle of righteous armegeddon-ready warriors. Put off by their extreme views, he refuses their offer and, now knowing too much, becomes the target of their aggression...fighting to survive against the odds in the wilderness.\n\nGeneral\nComplete name : Day of the Survivalist (1986) [VHSRip] [thePiratePimp].avi\nFormat : AVI\nFormat/Info : Audio Video Interleave\nFile size : 699 MiB\nDuration : 1h 32mn\nOverall bit rate mode : Variable\nOverall bit rate : 1 057 Kbps\nWriting application : VirtualDubMod 1.5.4.1 (build 2178/release)\nWriting library : VirtualDubMod build 2178/release\n\nVideo\nID : 0\nFormat : MPEG-4 Visual\nFormat profile : Advanced Simple@L5\nFormat settings, BVOP : 1\nFormat settings, QPel : No\nFormat settings, GMC : No warppoints\nFormat settings, Matrix : Custom\nCodec ID : XVID\nCodec ID/Hint : XviD\nDuration : 1h 32mn\nBit rate : 934 Kbps\nWidth : 512 pixels\nHeight : 384 pixels\nDisplay aspect ratio : 4:3\nFrame rate : 29.970 fps\nColor space : YUV\nChroma subsampling : 4:2:0\nBit depth : 8 bits\nScan type : Progressive\nCompression mode : Lossy\nBits/(Pixel*Frame) : 0.158\nStream size : 617 MiB (88%)\nWriting library : XviD 1.2.1 (UTC 2008-12-04)\n\nAudio\nID : 1\nFormat : MPEG Audio\nFormat version : Version 1\nFormat profile : Layer 3\nMode : Joint stereo\nMode extension : MS Stereo\nCodec ID : 55\nCodec ID/Hint : MP3\nDuration : 1h 32mn\nBit rate mode : Variable\nBit rate : 110 Kbps\nNominal bit rate : 128 Kbps\nChannel(s) : 2 channels\nSampling rate : 48.0 KHz\nCompression mode : Lossy\nStream size : 72.5 MiB (10%)\nAlignment : Aligned on interleaves\nInterleave, duration : 24 ms (0.72 video frame)\nInterleave, preload duration : 518 ms\nWriting library : LAME3.98r\nEncoding settings : -m j -V 4 -q 2 -lowpass 17 --abr 128","torrent":{"xt":"urn:btih:1e0d253352ae58688589a3de8d41cb3b4075292a","amp;dn":"Day+of+the+Survivalist+%281986%29+%5BVHSRip%5D+%5BthePiratePimp%5D.avi","amp;tr":["udp%3A%2F%2Ftracker.openbittorrent.com%3A80","udp%3A%2F%2Fopen.demonii.com%3A1337","udp%3A%2F%2Ftracker.coppersurfer.tk%3A6969","udp%3A%2F%2Fexodus.desync.com%3A6969"],"infoHash":"1e0d253352ae58688589a3de8d41cb3b4075292a","infoHashBuffer":{"type":"Buffer","data":[30,13,37,51,82,174,88,104,133,137,163,222,141,65,203,59,64,117,41,42]},"announce":[],"urlList":[]}}